<svg xmlns="http://www.w3.org/2000/svg" xmlns:xlink="http://www.w3.org/1999/xlink" width="481" zoomAndPan="magnify" viewBox="0 0 360.75 292.499991" height="390" preserveAspectRatio="xMidYMid meet" version="1.0"><defs><g/><clipPath id="23a6200af9"><path d="M 89.476562 2 L 244 2 L 244 181.191406 L 89.476562 181.191406 Z M 89.476562 2 " clip-rule="nonzero"/></clipPath><clipPath id="8e88b1ae02"><path d="M 116 0 L 270.667969 0 L 270.667969 181 L 116 181 Z M 116 0 " clip-rule="nonzero"/></clipPath></defs><g clip-path="url(#23a6200af9)"><path fill="#ffffff" d="M 213.070312 103.539062 L 238.359375 64.847656 L 238.359375 123.546875 L 243.363281 123.546875 L 243.363281 57.488281 L 237.132812 57.488281 L 212.125 95.992188 L 186.832031 57.488281 C 184.378906 57.488281 183.25 57.488281 180.796875 57.488281 L 180.796875 176.394531 C 180.546875 176.398438 180.296875 176.410156 180.042969 176.410156 C 132.707031 176.410156 94.195312 137.898438 94.195312 90.5625 C 94.195312 50.671875 121.546875 17.054688 158.480469 7.464844 L 158.480469 2.613281 C 118.921875 12.316406 89.476562 48.058594 89.476562 90.5625 C 89.476562 140.503906 130.105469 181.132812 180.042969 181.132812 C 182.007812 181.132812 183.949219 181.046875 185.886719 180.921875 L 185.886719 177.070312 L 185.890625 177.070312 L 185.890625 64.847656 L 211.371094 103.539062 Z M 213.070312 103.539062 " fill-opacity="1" fill-rule="nonzero"/></g><g clip-path="url(#8e88b1ae02)"><path fill="#ff1616" d="M 180.042969 0 C 174.28125 0 168.65625 0.5625 163.199219 1.597656 L 163.199219 62.289062 C 157.597656 57.4375 151.066406 56.550781 143.800781 56.550781 C 132.949219 56.550781 118.425781 60.886719 118.699219 74.855469 C 118.699219 87.023438 131.066406 89.484375 143.148438 91.839844 C 153.992188 93.917969 164.941406 96.085938 164.847656 105.992188 C 164.847656 117.703125 151.914062 119.957031 143.800781 119.957031 C 135.691406 119.957031 125.304688 115.996094 121.25 107.980469 L 116.71875 110.242188 C 121.816406 120.347656 133.515625 124.585938 143.800781 124.585938 C 154.851562 124.585938 169.855469 121.003906 169.941406 106.089844 C 169.941406 91.84375 156.734375 89.574219 143.992188 87.125 C 132.847656 85.046875 123.796875 83.066406 123.796875 74.664062 C 123.796875 64.097656 136.0625 61.261719 143.800781 61.261719 C 150.953125 61.359375 158.371094 62.394531 163.199219 69.3125 C 163.402344 69.597656 163.605469 69.910156 163.808594 70.234375 L 167.910156 67.8125 L 167.960938 67.777344 C 167.9375 67.757812 167.925781 67.726562 167.910156 67.703125 L 167.910156 5.59375 C 171.875 5.027344 175.925781 4.71875 180.042969 4.71875 C 227.375 4.71875 265.886719 43.230469 265.886719 90.5625 C 265.886719 134.320312 232.972656 170.511719 190.605469 175.738281 L 190.605469 180.492188 C 235.582031 175.242188 270.605469 136.929688 270.605469 90.5625 C 270.609375 40.628906 229.980469 0 180.042969 0 Z M 180.042969 0 " fill-opacity="1" fill-rule="nonzero"/></g><g fill="#ffffff" fill-opacity="1"><g transform="translate(79.159788, 221.23275)"><g><path d="M 1.421875 -2.875 C 0.941406 -3.46875 0.703125 -4 0.703125 -4.46875 C 0.703125 -4.945312 1.097656 -5.578125 1.890625 -6.359375 C 2.359375 -6.804688 2.851562 -7.03125 3.375 -7.03125 C 3.894531 -7.03125 4.617188 -6.566406 5.546875 -5.640625 C 5.804688 -5.316406 6.175781 -5.007812 6.65625 -4.71875 C 7.144531 -4.4375 7.59375 -4.296875 8 -4.296875 C 9.726562 -4.296875 10.59375 -5.003906 10.59375 -6.421875 C 10.59375 -6.847656 10.351562 -7.203125 9.875 -7.484375 C 9.40625 -7.773438 8.816406 -7.984375 8.109375 -8.109375 C 7.410156 -8.242188 6.648438 -8.453125 5.828125 -8.734375 C 5.015625 -9.023438 4.253906 -9.363281 3.546875 -9.75 C 2.835938 -10.144531 2.242188 -10.765625 1.765625 -11.609375 C 1.296875 -12.460938 1.0625 -13.484375 1.0625 -14.671875 C 1.0625 -16.304688 1.671875 -17.734375 2.890625 -18.953125 C 4.109375 -20.171875 5.765625 -20.78125 7.859375 -20.78125 C 8.972656 -20.78125 9.988281 -20.632812 10.90625 -20.34375 C 11.832031 -20.050781 12.472656 -19.757812 12.828125 -19.46875 L 13.53125 -18.9375 C 14.101562 -18.394531 14.390625 -17.9375 14.390625 -17.5625 C 14.390625 -17.195312 14.164062 -16.6875 13.71875 -16.03125 C 13.09375 -15.101562 12.441406 -14.640625 11.765625 -14.640625 C 11.378906 -14.640625 10.894531 -14.828125 10.3125 -15.203125 C 10.257812 -15.234375 10.15625 -15.320312 10 -15.46875 C 9.84375 -15.625 9.695312 -15.75 9.5625 -15.84375 C 9.175781 -16.082031 8.679688 -16.203125 8.078125 -16.203125 C 7.472656 -16.203125 6.96875 -16.054688 6.5625 -15.765625 C 6.164062 -15.484375 5.96875 -15.085938 5.96875 -14.578125 C 5.96875 -14.066406 6.203125 -13.648438 6.671875 -13.328125 C 7.148438 -13.015625 7.742188 -12.800781 8.453125 -12.6875 C 9.160156 -12.570312 9.929688 -12.398438 10.765625 -12.171875 C 11.597656 -11.941406 12.367188 -11.660156 13.078125 -11.328125 C 13.785156 -10.992188 14.375 -10.410156 14.84375 -9.578125 C 15.320312 -8.753906 15.5625 -7.738281 15.5625 -6.53125 C 15.5625 -5.320312 15.316406 -4.253906 14.828125 -3.328125 C 14.347656 -2.410156 13.71875 -1.703125 12.9375 -1.203125 C 11.4375 -0.210938 9.828125 0.28125 8.109375 0.28125 C 7.242188 0.28125 6.421875 0.175781 5.640625 -0.03125 C 4.859375 -0.25 4.222656 -0.519531 3.734375 -0.84375 C 2.753906 -1.4375 2.066406 -2.007812 1.671875 -2.5625 Z M 1.421875 -2.875 "/></g></g></g><g fill="#ffffff" fill-opacity="1"><g transform="translate(96.614832, 221.23275)"><g><path d="M 22.84375 -19.65625 C 22.988281 -19.382812 23.078125 -19.132812 23.109375 -18.90625 C 23.140625 -18.6875 23.15625 -18.363281 23.15625 -17.9375 L 23.15625 -2.453125 C 23.15625 -1.171875 22.800781 -0.414062 22.09375 -0.1875 C 21.738281 -0.0820312 21.289062 -0.03125 20.75 -0.03125 C 20.207031 -0.03125 19.78125 -0.078125 19.46875 -0.171875 C 19.15625 -0.265625 18.910156 -0.375 18.734375 -0.5 C 18.566406 -0.632812 18.441406 -0.820312 18.359375 -1.0625 C 18.265625 -1.375 18.21875 -1.859375 18.21875 -2.515625 L 18.21875 -11.859375 C 17.75 -11.273438 17.066406 -10.351562 16.171875 -9.09375 C 15.285156 -7.84375 14.71875 -7.0625 14.46875 -6.75 C 14.226562 -6.4375 14.0625 -6.21875 13.96875 -6.09375 C 13.875 -5.96875 13.644531 -5.796875 13.28125 -5.578125 C 12.925781 -5.367188 12.535156 -5.265625 12.109375 -5.265625 C 11.691406 -5.265625 11.3125 -5.363281 10.96875 -5.5625 C 10.625 -5.757812 10.378906 -5.953125 10.234375 -6.140625 L 10.015625 -6.4375 C 9.640625 -6.90625 8.898438 -7.894531 7.796875 -9.40625 C 6.703125 -10.925781 6.113281 -11.742188 6.03125 -11.859375 L 6.03125 -2.453125 C 6.03125 -2.023438 6.015625 -1.703125 5.984375 -1.484375 C 5.953125 -1.273438 5.863281 -1.039062 5.71875 -0.78125 C 5.4375 -0.28125 4.710938 -0.03125 3.546875 -0.03125 C 2.410156 -0.03125 1.703125 -0.28125 1.421875 -0.78125 C 1.273438 -1.039062 1.1875 -1.28125 1.15625 -1.5 C 1.125 -1.726562 1.109375 -2.066406 1.109375 -2.515625 L 1.109375 -17.984375 C 1.109375 -18.410156 1.125 -18.726562 1.15625 -18.9375 C 1.1875 -19.15625 1.273438 -19.40625 1.421875 -19.6875 C 1.703125 -20.175781 2.425781 -20.421875 3.59375 -20.421875 C 4.09375 -20.421875 4.523438 -20.359375 4.890625 -20.234375 C 5.253906 -20.109375 5.492188 -19.984375 5.609375 -19.859375 L 5.765625 -19.6875 L 12.109375 -11.375 C 15.265625 -15.5625 17.375 -18.320312 18.4375 -19.65625 C 18.75 -20.164062 19.492188 -20.421875 20.671875 -20.421875 C 21.859375 -20.421875 22.582031 -20.164062 22.84375 -19.65625 Z M 22.84375 -19.65625 "/></g></g></g><g fill="#ffffff" fill-opacity="1"><g transform="translate(122.072282, 221.23275)"><g><path d="M 5.4375 -4.609375 C 5.75 -4.285156 5.90625 -3.632812 5.90625 -2.65625 L 5.90625 -2.53125 C 5.90625 -2.09375 5.890625 -1.765625 5.859375 -1.546875 C 5.835938 -1.335938 5.742188 -1.082031 5.578125 -0.78125 C 5.296875 -0.238281 4.59375 0.03125 3.46875 0.03125 C 2.34375 0.03125 1.597656 -0.144531 1.234375 -0.5 C 0.878906 -0.851562 0.703125 -1.523438 0.703125 -2.515625 L 0.703125 -2.625 C 0.703125 -3.050781 0.710938 -3.375 0.734375 -3.59375 C 0.765625 -3.820312 0.851562 -4.070312 1 -4.34375 C 1.28125 -4.90625 1.984375 -5.1875 3.109375 -5.1875 C 4.234375 -5.1875 5.007812 -4.992188 5.4375 -4.609375 Z M 5.4375 -4.609375 "/></g></g></g><g fill="#ffffff" fill-opacity="1"><g transform="translate(129.879825, 221.23275)"><g><path d="M 3.59375 -20.46875 L 8.75 -20.4375 C 11.445312 -20.4375 13.816406 -19.460938 15.859375 -17.515625 C 17.910156 -15.578125 18.9375 -13.191406 18.9375 -10.359375 C 18.9375 -7.523438 17.9375 -5.09375 15.9375 -3.0625 C 13.9375 -1.039062 11.515625 -0.03125 8.671875 -0.03125 L 3.5625 -0.03125 C 2.4375 -0.03125 1.734375 -0.257812 1.453125 -0.71875 C 1.222656 -1.113281 1.109375 -1.710938 1.109375 -2.515625 L 1.109375 -18.015625 C 1.109375 -18.460938 1.125 -18.785156 1.15625 -18.984375 C 1.1875 -19.191406 1.273438 -19.4375 1.421875 -19.71875 C 1.679688 -20.21875 2.40625 -20.46875 3.59375 -20.46875 Z M 8.75 -4.96875 C 10.09375 -4.96875 11.300781 -5.460938 12.375 -6.453125 C 13.457031 -7.453125 14 -8.703125 14 -10.203125 C 14 -11.710938 13.472656 -12.972656 12.421875 -13.984375 C 11.367188 -14.992188 10.140625 -15.5 8.734375 -15.5 L 6.046875 -15.5 L 6.046875 -4.96875 Z M 8.75 -4.96875 "/></g></g></g><g fill="#ffffff" fill-opacity="1"><g transform="translate(150.708703, 221.23275)"><g><path d="M 6.046875 -4.9375 L 14.640625 -4.9375 C 15.066406 -4.9375 15.382812 -4.921875 15.59375 -4.890625 C 15.8125 -4.867188 16.0625 -4.78125 16.34375 -4.625 C 16.84375 -4.363281 17.09375 -3.640625 17.09375 -2.453125 C 17.09375 -1.148438 16.75 -0.390625 16.0625 -0.171875 C 15.75 -0.0546875 15.265625 0 14.609375 0 L 3.5625 0 C 2.269531 0 1.507812 -0.351562 1.28125 -1.0625 C 1.164062 -1.351562 1.109375 -1.828125 1.109375 -2.484375 L 1.109375 -17.984375 C 1.109375 -18.929688 1.285156 -19.578125 1.640625 -19.921875 C 1.992188 -20.265625 2.664062 -20.4375 3.65625 -20.4375 L 14.640625 -20.4375 C 15.066406 -20.4375 15.382812 -20.421875 15.59375 -20.390625 C 15.8125 -20.367188 16.0625 -20.285156 16.34375 -20.140625 C 16.84375 -19.878906 17.09375 -19.15625 17.09375 -17.96875 C 17.09375 -16.664062 16.75 -15.898438 16.0625 -15.671875 C 15.75 -15.554688 15.265625 -15.5 14.609375 -15.5 L 6.046875 -15.5 L 6.046875 -12.6875 L 11.578125 -12.6875 C 12.003906 -12.6875 12.320312 -12.671875 12.53125 -12.640625 C 12.75 -12.617188 13 -12.535156 13.28125 -12.390625 C 13.78125 -12.128906 14.03125 -11.398438 14.03125 -10.203125 C 14.03125 -8.898438 13.675781 -8.140625 12.96875 -7.921875 C 12.65625 -7.804688 12.171875 -7.75 11.515625 -7.75 L 6.046875 -7.75 Z M 6.046875 -4.9375 "/></g></g></g><g fill="#ffffff" fill-opacity="1"><g transform="translate(169.697307, 221.23275)"><g><path d="M 19.78125 -20.140625 C 20.875 -19.597656 21.421875 -19.003906 21.421875 -18.359375 C 21.421875 -18.054688 21.28125 -17.609375 21 -17.015625 L 13.296875 -1.390625 C 13.097656 -0.984375 12.785156 -0.65625 12.359375 -0.40625 C 11.941406 -0.15625 11.515625 -0.03125 11.078125 -0.03125 L 10.796875 -0.03125 C 10.328125 -0.03125 9.882812 -0.15625 9.46875 -0.40625 C 9.050781 -0.65625 8.738281 -0.984375 8.53125 -1.390625 L 0.84375 -17.015625 C 0.5625 -17.609375 0.421875 -18.054688 0.421875 -18.359375 C 0.421875 -19.003906 0.96875 -19.597656 2.0625 -20.140625 C 2.675781 -20.453125 3.144531 -20.609375 3.46875 -20.609375 C 3.789062 -20.609375 4.035156 -20.570312 4.203125 -20.5 C 4.378906 -20.425781 4.539062 -20.296875 4.6875 -20.109375 C 4.851562 -19.890625 5.003906 -19.644531 5.140625 -19.375 C 5.285156 -19.101562 5.644531 -18.328125 6.21875 -17.046875 C 6.789062 -15.773438 7.40625 -14.421875 8.0625 -12.984375 C 8.726562 -11.554688 9.351562 -10.207031 9.9375 -8.9375 C 10.53125 -7.664062 10.863281 -6.957031 10.9375 -6.8125 L 16.515625 -19.015625 C 16.660156 -19.367188 16.789062 -19.648438 16.90625 -19.859375 C 17.238281 -20.359375 17.644531 -20.609375 18.125 -20.609375 C 18.613281 -20.609375 19.164062 -20.453125 19.78125 -20.140625 Z M 19.78125 -20.140625 "/></g></g></g><g fill="#ffffff" fill-opacity="1"><g transform="translate(192.728935, 221.23275)"><g><path d="M 25.578125 -20.328125 C 26.816406 -19.878906 27.4375 -19.285156 27.4375 -18.546875 C 27.4375 -18.304688 27.328125 -17.851562 27.109375 -17.1875 L 21.75 -1.703125 C 21.71875 -1.566406 21.65625 -1.40625 21.5625 -1.21875 C 21.46875 -1.039062 21.21875 -0.796875 20.8125 -0.484375 C 20.414062 -0.179688 19.941406 -0.03125 19.390625 -0.03125 C 18.847656 -0.03125 18.375 -0.179688 17.96875 -0.484375 C 17.570312 -0.796875 17.3125 -1.097656 17.1875 -1.390625 L 13.921875 -11.015625 C 11.859375 -4.921875 10.804688 -1.816406 10.765625 -1.703125 C 10.722656 -1.585938 10.632812 -1.425781 10.5 -1.21875 C 10.375 -1.019531 10.226562 -0.835938 10.0625 -0.671875 C 9.632812 -0.242188 9.125 -0.03125 8.53125 -0.03125 C 7.9375 -0.03125 7.445312 -0.164062 7.0625 -0.4375 C 6.6875 -0.71875 6.429688 -1 6.296875 -1.28125 L 6.109375 -1.703125 L 0.71875 -17.1875 C 0.519531 -17.789062 0.421875 -18.242188 0.421875 -18.546875 C 0.421875 -19.285156 1.039062 -19.867188 2.28125 -20.296875 C 2.820312 -20.484375 3.3125 -20.578125 3.75 -20.578125 C 4.1875 -20.578125 4.519531 -20.425781 4.75 -20.125 C 4.988281 -19.832031 5.203125 -19.378906 5.390625 -18.765625 L 8.453125 -9.453125 L 11.484375 -18.625 C 11.742188 -19.40625 12.21875 -19.945312 12.90625 -20.25 C 13.207031 -20.375 13.59375 -20.4375 14.0625 -20.4375 C 14.539062 -20.4375 14.984375 -20.285156 15.390625 -19.984375 C 15.804688 -19.679688 16.066406 -19.378906 16.171875 -19.078125 L 19.390625 -9.40625 L 22.453125 -18.765625 C 22.597656 -19.191406 22.71875 -19.507812 22.8125 -19.71875 C 22.90625 -19.925781 23.078125 -20.125 23.328125 -20.3125 C 23.578125 -20.507812 23.890625 -20.609375 24.265625 -20.609375 C 24.640625 -20.609375 25.078125 -20.515625 25.578125 -20.328125 Z M 25.578125 -20.328125 "/></g></g></g><g fill="#ffffff" fill-opacity="1"><g transform="translate(221.783274, 221.23275)"><g><path d="M 12.90625 -19 L 20.4375 -3.4375 C 20.757812 -2.800781 20.921875 -2.328125 20.921875 -2.015625 C 20.921875 -1.335938 20.378906 -0.726562 19.296875 -0.1875 C 18.671875 0.125 18.175781 0.28125 17.8125 0.28125 C 17.445312 0.28125 17.144531 0.195312 16.90625 0.03125 C 16.675781 -0.132812 16.507812 -0.3125 16.40625 -0.5 C 16.3125 -0.6875 16.171875 -0.96875 15.984375 -1.34375 L 14.53125 -4.34375 L 6.8125 -4.34375 L 5.359375 -1.34375 C 5.171875 -0.96875 5.023438 -0.695312 4.921875 -0.53125 C 4.816406 -0.363281 4.648438 -0.191406 4.421875 -0.015625 C 4.191406 0.160156 3.894531 0.25 3.53125 0.25 C 3.164062 0.25 2.664062 0.09375 2.03125 -0.21875 C 0.957031 -0.738281 0.421875 -1.335938 0.421875 -2.015625 C 0.421875 -2.328125 0.578125 -2.800781 0.890625 -3.4375 L 8.421875 -19.015625 C 8.628906 -19.441406 8.941406 -19.785156 9.359375 -20.046875 C 9.773438 -20.304688 10.21875 -20.4375 10.6875 -20.4375 C 11.6875 -20.4375 12.425781 -19.957031 12.90625 -19 Z M 10.65625 -12.296875 L 8.8125 -8.484375 L 12.515625 -8.484375 Z M 10.65625 -12.296875 "/></g></g></g><g fill="#ffffff" fill-opacity="1"><g transform="translate(244.313014, 221.23275)"><g><path d="M 16.765625 -3.453125 C 17.046875 -2.785156 17.1875 -2.304688 17.1875 -2.015625 C 17.1875 -1.304688 16.609375 -0.707031 15.453125 -0.21875 C 14.859375 0.0390625 14.378906 0.171875 14.015625 0.171875 C 13.648438 0.171875 13.351562 0.0820312 13.125 -0.09375 C 12.894531 -0.269531 12.722656 -0.453125 12.609375 -0.640625 C 12.421875 -0.992188 11.695312 -2.675781 10.4375 -5.6875 L 9.5625 -5.640625 L 6.046875 -5.640625 L 6.046875 -2.484375 C 6.046875 -2.054688 6.03125 -1.734375 6 -1.515625 C 5.976562 -1.304688 5.894531 -1.0625 5.75 -0.78125 C 5.488281 -0.28125 4.757812 -0.03125 3.5625 -0.03125 C 2.269531 -0.03125 1.507812 -0.375 1.28125 -1.0625 C 1.164062 -1.375 1.109375 -1.859375 1.109375 -2.515625 L 1.109375 -17.984375 C 1.109375 -18.410156 1.125 -18.726562 1.15625 -18.9375 C 1.1875 -19.15625 1.273438 -19.40625 1.421875 -19.6875 C 1.679688 -20.1875 2.40625 -20.4375 3.59375 -20.4375 L 9.625 -20.4375 C 11.257812 -20.4375 12.847656 -19.84375 14.390625 -18.65625 C 15.128906 -18.082031 15.738281 -17.300781 16.21875 -16.3125 C 16.707031 -15.332031 16.953125 -14.238281 16.953125 -13.03125 C 16.953125 -10.925781 16.253906 -9.195312 14.859375 -7.84375 C 15.273438 -6.851562 15.910156 -5.390625 16.765625 -3.453125 Z M 6.046875 -10.578125 L 9.625 -10.578125 C 10.164062 -10.578125 10.703125 -10.78125 11.234375 -11.1875 C 11.773438 -11.59375 12.046875 -12.203125 12.046875 -13.015625 C 12.046875 -13.835938 11.773438 -14.457031 11.234375 -14.875 C 10.703125 -15.289062 10.144531 -15.5 9.5625 -15.5 L 6.046875 -15.5 Z M 6.046875 -10.578125 "/></g></g></g><g fill="#ffffff" fill-opacity="1"><g transform="translate(263.10644, 221.23275)"><g><path d="M 6.046875 -4.9375 L 14.640625 -4.9375 C 15.066406 -4.9375 15.382812 -4.921875 15.59375 -4.890625 C 15.8125 -4.867188 16.0625 -4.78125 16.34375 -4.625 C 16.84375 -4.363281 17.09375 -3.640625 17.09375 -2.453125 C 17.09375 -1.148438 16.75 -0.390625 16.0625 -0.171875 C 15.75 -0.0546875 15.265625 0 14.609375 0 L 3.5625 0 C 2.269531 0 1.507812 -0.351562 1.28125 -1.0625 C 1.164062 -1.351562 1.109375 -1.828125 1.109375 -2.484375 L 1.109375 -17.984375 C 1.109375 -18.929688 1.285156 -19.578125 1.640625 -19.921875 C 1.992188 -20.265625 2.664062 -20.4375 3.65625 -20.4375 L 14.640625 -20.4375 C 15.066406 -20.4375 15.382812 -20.421875 15.59375 -20.390625 C 15.8125 -20.367188 16.0625 -20.285156 16.34375 -20.140625 C 16.84375 -19.878906 17.09375 -19.15625 17.09375 -17.96875 C 17.09375 -16.664062 16.75 -15.898438 16.0625 -15.671875 C 15.75 -15.554688 15.265625 -15.5 14.609375 -15.5 L 6.046875 -15.5 L 6.046875 -12.6875 L 11.578125 -12.6875 C 12.003906 -12.6875 12.320312 -12.671875 12.53125 -12.640625 C 12.75 -12.617188 13 -12.535156 13.28125 -12.390625 C 13.78125 -12.128906 14.03125 -11.398438 14.03125 -10.203125 C 14.03125 -8.898438 13.675781 -8.140625 12.96875 -7.921875 C 12.65625 -7.804688 12.171875 -7.75 11.515625 -7.75 L 6.046875 -7.75 Z M 6.046875 -4.9375 "/></g></g></g><g fill="#ffffff" fill-opacity="1"><g transform="translate(19.302197, 280.026674)"><g><path d="M 1.28125 0 L 1.28125 -9.671875 C 1.28125 -10.390625 1.457031 -10.914062 1.8125 -11.25 C 2.164062 -11.582031 2.625 -11.75 3.1875 -11.75 C 3.207031 -11.75 3.226562 -11.75 3.25 -11.75 C 3.269531 -11.75 3.289062 -11.75 3.3125 -11.75 L 8.390625 -11.5 L 8.390625 -10.5625 L 3.3125 -10.5625 C 3.050781 -10.5625 2.851562 -10.507812 2.71875 -10.40625 C 2.582031 -10.3125 2.503906 -10.210938 2.484375 -10.109375 C 2.472656 -10.003906 2.46875 -9.859375 2.46875 -9.671875 L 2.46875 -6.453125 L 7.734375 -6.296875 L 7.734375 -5.34375 L 2.46875 -5.1875 L 2.46875 0 Z M 1.28125 0 "/></g></g></g><g fill="#ffffff" fill-opacity="1"><g transform="translate(33.131239, 280.026674)"><g><path d="M 0.71875 -10.5625 L 0.71875 -11.75 L 8.875 -11.75 L 8.875 -10.5625 L 5.34375 -10.5625 L 5.34375 0 L 4.15625 0 L 4.15625 -10.5625 Z M 0.71875 -10.5625 "/></g></g></g><g fill="#ffffff" fill-opacity="1"><g transform="translate(47.13692, 280.026674)"><g><path d="M 1.046875 -5.796875 C 1.046875 -6.691406 1.09375 -7.472656 1.1875 -8.140625 C 1.28125 -8.816406 1.425781 -9.375 1.625 -9.8125 C 1.832031 -10.25 2.054688 -10.601562 2.296875 -10.875 C 2.546875 -11.15625 2.859375 -11.363281 3.234375 -11.5 C 3.609375 -11.632812 3.96875 -11.722656 4.3125 -11.765625 C 4.664062 -11.816406 5.097656 -11.84375 5.609375 -11.84375 C 6.046875 -11.84375 6.421875 -11.820312 6.734375 -11.78125 C 7.054688 -11.75 7.382812 -11.6875 7.71875 -11.59375 C 8.050781 -11.5 8.332031 -11.363281 8.5625 -11.1875 C 8.789062 -11.019531 9.007812 -10.785156 9.21875 -10.484375 C 9.4375 -10.179688 9.601562 -9.816406 9.71875 -9.390625 C 9.84375 -8.972656 9.941406 -8.460938 10.015625 -7.859375 C 10.097656 -7.265625 10.140625 -6.578125 10.140625 -5.796875 C 10.140625 -4.773438 10.070312 -3.910156 9.9375 -3.203125 C 9.800781 -2.492188 9.617188 -1.921875 9.390625 -1.484375 C 9.160156 -1.054688 8.84375 -0.726562 8.4375 -0.5 C 8.039062 -0.269531 7.625 -0.117188 7.1875 -0.046875 C 6.757812 0.0234375 6.234375 0.0625 5.609375 0.0625 C 5.066406 0.0625 4.613281 0.0390625 4.25 0 C 3.882812 -0.0390625 3.515625 -0.128906 3.140625 -0.265625 C 2.773438 -0.398438 2.472656 -0.597656 2.234375 -0.859375 C 1.992188 -1.117188 1.773438 -1.460938 1.578125 -1.890625 C 1.390625 -2.316406 1.253906 -2.851562 1.171875 -3.5 C 1.085938 -4.15625 1.046875 -4.921875 1.046875 -5.796875 Z M 2.234375 -5.796875 C 2.234375 -4.753906 2.28125 -3.925781 2.375 -3.3125 C 2.476562 -2.707031 2.675781 -2.238281 2.96875 -1.90625 C 3.269531 -1.570312 3.613281 -1.359375 4 -1.265625 C 4.382812 -1.171875 4.921875 -1.125 5.609375 -1.125 C 6.140625 -1.125 6.578125 -1.15625 6.921875 -1.21875 C 7.265625 -1.289062 7.570312 -1.421875 7.84375 -1.609375 C 8.125 -1.796875 8.335938 -2.066406 8.484375 -2.421875 C 8.640625 -2.773438 8.753906 -3.222656 8.828125 -3.765625 C 8.910156 -4.304688 8.953125 -4.984375 8.953125 -5.796875 C 8.953125 -6.335938 8.929688 -6.816406 8.890625 -7.234375 C 8.859375 -7.660156 8.820312 -8.03125 8.78125 -8.34375 C 8.738281 -8.664062 8.664062 -8.945312 8.5625 -9.1875 C 8.457031 -9.4375 8.359375 -9.640625 8.265625 -9.796875 C 8.179688 -9.953125 8.050781 -10.085938 7.875 -10.203125 C 7.707031 -10.316406 7.5625 -10.398438 7.4375 -10.453125 C 7.320312 -10.515625 7.140625 -10.5625 6.890625 -10.59375 C 6.648438 -10.625 6.453125 -10.640625 6.296875 -10.640625 C 6.140625 -10.648438 5.910156 -10.65625 5.609375 -10.65625 C 5.304688 -10.65625 5.078125 -10.648438 4.921875 -10.640625 C 4.765625 -10.640625 4.566406 -10.625 4.328125 -10.59375 C 4.085938 -10.5625 3.898438 -10.515625 3.765625 -10.453125 C 3.640625 -10.398438 3.488281 -10.316406 3.3125 -10.203125 C 3.144531 -10.085938 3.015625 -9.953125 2.921875 -9.796875 C 2.835938 -9.640625 2.738281 -9.4375 2.625 -9.1875 C 2.519531 -8.945312 2.441406 -8.664062 2.390625 -8.34375 C 2.347656 -8.03125 2.3125 -7.65625 2.28125 -7.21875 C 2.25 -6.789062 2.234375 -6.316406 2.234375 -5.796875 Z M 2.234375 -5.796875 "/></g></g></g><g fill="#ffffff" fill-opacity="1"><g transform="translate(62.716244, 280.026674)"><g><path d="M 1.28125 0 L 1.28125 -11.75 L 2.5 -11.75 L 8.765625 -2.21875 L 8.765625 -11.75 L 9.953125 -11.75 L 9.953125 0 L 8.765625 0 L 2.484375 -9.546875 L 2.484375 0 Z M 1.28125 0 "/></g></g></g><g fill="#ffffff" fill-opacity="1"><g transform="translate(78.359805, 280.026674)"><g><path d="M 0.71875 -10.5625 L 0.71875 -11.75 L 8.875 -11.75 L 8.875 -10.5625 L 5.34375 -10.5625 L 5.34375 0 L 4.15625 0 L 4.15625 -10.5625 Z M 0.71875 -10.5625 "/></g></g></g><g fill="#ffffff" fill-opacity="1"><g transform="translate(92.365487, 280.026674)"><g><path d="M 0.328125 -4.0625 L 0.328125 -5.25 L 5.359375 -5.25 L 5.359375 -4.0625 Z M 0.328125 -4.0625 "/></g></g></g><g fill="#ffffff" fill-opacity="1"><g transform="translate(102.774251, 280.026674)"><g><path d="M 1.28125 -1.96875 L 1.28125 -9.671875 C 1.28125 -10.390625 1.457031 -10.914062 1.8125 -11.25 C 2.164062 -11.582031 2.625 -11.75 3.1875 -11.75 C 3.207031 -11.75 3.226562 -11.75 3.25 -11.75 C 3.269531 -11.75 3.289062 -11.75 3.3125 -11.75 L 8.390625 -11.5 L 8.390625 -10.5625 L 3.3125 -10.5625 C 3.050781 -10.5625 2.851562 -10.507812 2.71875 -10.40625 C 2.582031 -10.3125 2.503906 -10.210938 2.484375 -10.109375 C 2.472656 -10.003906 2.46875 -9.859375 2.46875 -9.671875 L 2.46875 -6.453125 L 7.734375 -6.296875 L 7.734375 -5.34375 L 2.46875 -5.1875 L 2.46875 -1.96875 C 2.46875 -1.78125 2.492188 -1.625 2.546875 -1.5 C 2.609375 -1.375 2.691406 -1.285156 2.796875 -1.234375 C 2.898438 -1.191406 2.992188 -1.164062 3.078125 -1.15625 C 3.160156 -1.144531 3.273438 -1.140625 3.421875 -1.140625 C 3.421875 -1.140625 3.425781 -1.140625 3.4375 -1.140625 C 3.445312 -1.140625 3.457031 -1.140625 3.46875 -1.140625 L 8.390625 -1.140625 L 8.390625 -0.21875 L 3.46875 0.046875 C 3.425781 0.046875 3.382812 0.046875 3.34375 0.046875 C 3.300781 0.0546875 3.257812 0.0625 3.21875 0.0625 C 2.945312 0.0625 2.703125 0.0351562 2.484375 -0.015625 C 2.273438 -0.078125 2.078125 -0.179688 1.890625 -0.328125 C 1.703125 -0.472656 1.550781 -0.679688 1.4375 -0.953125 C 1.332031 -1.234375 1.28125 -1.570312 1.28125 -1.96875 Z M 1.28125 -1.96875 "/></g></g></g><g fill="#ffffff" fill-opacity="1"><g transform="translate(116.603294, 280.026674)"><g><path d="M 1.28125 0 L 1.28125 -11.75 L 2.5 -11.75 L 8.765625 -2.21875 L 8.765625 -11.75 L 9.953125 -11.75 L 9.953125 0 L 8.765625 0 L 2.484375 -9.546875 L 2.484375 0 Z M 1.28125 0 "/></g></g></g><g fill="#ffffff" fill-opacity="1"><g transform="translate(132.24685, 280.026674)"><g><path d="M 1.28125 0 L 1.28125 -11.75 L 5.65625 -11.75 C 6.351562 -11.75 6.957031 -11.617188 7.46875 -11.359375 C 7.988281 -11.097656 8.394531 -10.769531 8.6875 -10.375 C 8.976562 -9.976562 9.210938 -9.5 9.390625 -8.9375 C 9.578125 -8.382812 9.695312 -7.863281 9.75 -7.375 C 9.800781 -6.894531 9.828125 -6.378906 9.828125 -5.828125 C 9.828125 -5.273438 9.78125 -4.734375 9.6875 -4.203125 C 9.601562 -3.671875 9.457031 -3.144531 9.25 -2.625 C 9.039062 -2.113281 8.78125 -1.664062 8.46875 -1.28125 C 8.15625 -0.894531 7.753906 -0.582031 7.265625 -0.34375 C 6.785156 -0.113281 6.25 0 5.65625 0 Z M 2.46875 -1.234375 L 5.65625 -1.234375 C 6.332031 -1.234375 6.898438 -1.445312 7.359375 -1.875 C 7.816406 -2.3125 8.144531 -2.863281 8.34375 -3.53125 C 8.539062 -4.207031 8.640625 -4.976562 8.640625 -5.84375 C 8.640625 -7.507812 8.382812 -8.710938 7.875 -9.453125 C 7.363281 -10.191406 6.625 -10.5625 5.65625 -10.5625 L 2.46875 -10.5625 Z M 2.46875 -1.234375 "/></g></g></g><g fill="#ffffff" fill-opacity="1"><g transform="translate(147.521082, 280.026674)"><g/></g></g><g fill="#ffffff" fill-opacity="1"><g transform="translate(157.464177, 280.026674)"><g><path d="M 0.71875 -11.75 L 2.03125 -11.75 L 5.4375 -2.078125 L 8.359375 -11.75 L 9.703125 -11.75 L 8.609375 -8 L 10.75 -1.96875 L 13.75 -11.75 L 15.046875 -11.75 L 11.375 0 L 10.1875 0 L 7.984375 -6 L 6.046875 0 L 4.84375 0 Z M 0.71875 -11.75 "/></g></g></g><g fill="#ffffff" fill-opacity="1"><g transform="translate(177.635994, 280.026674)"><g><path d="M 1.28125 -1.96875 L 1.28125 -9.671875 C 1.28125 -10.390625 1.457031 -10.914062 1.8125 -11.25 C 2.164062 -11.582031 2.625 -11.75 3.1875 -11.75 C 3.207031 -11.75 3.226562 -11.75 3.25 -11.75 C 3.269531 -11.75 3.289062 -11.75 3.3125 -11.75 L 8.390625 -11.5 L 8.390625 -10.5625 L 3.3125 -10.5625 C 3.050781 -10.5625 2.851562 -10.507812 2.71875 -10.40625 C 2.582031 -10.3125 2.503906 -10.210938 2.484375 -10.109375 C 2.472656 -10.003906 2.46875 -9.859375 2.46875 -9.671875 L 2.46875 -6.453125 L 7.734375 -6.296875 L 7.734375 -5.34375 L 2.46875 -5.1875 L 2.46875 -1.96875 C 2.46875 -1.78125 2.492188 -1.625 2.546875 -1.5 C 2.609375 -1.375 2.691406 -1.285156 2.796875 -1.234375 C 2.898438 -1.191406 2.992188 -1.164062 3.078125 -1.15625 C 3.160156 -1.144531 3.273438 -1.140625 3.421875 -1.140625 C 3.421875 -1.140625 3.425781 -1.140625 3.4375 -1.140625 C 3.445312 -1.140625 3.457031 -1.140625 3.46875 -1.140625 L 8.390625 -1.140625 L 8.390625 -0.21875 L 3.46875 0.046875 C 3.425781 0.046875 3.382812 0.046875 3.34375 0.046875 C 3.300781 0.0546875 3.257812 0.0625 3.21875 0.0625 C 2.945312 0.0625 2.703125 0.0351562 2.484375 -0.015625 C 2.273438 -0.078125 2.078125 -0.179688 1.890625 -0.328125 C 1.703125 -0.472656 1.550781 -0.679688 1.4375 -0.953125 C 1.332031 -1.234375 1.28125 -1.570312 1.28125 -1.96875 Z M 1.28125 -1.96875 "/></g></g></g><g fill="#ffffff" fill-opacity="1"><g transform="translate(191.465037, 280.026674)"><g><path d="M 1.28125 0 L 1.28125 -11.75 L 5.8125 -11.75 C 6.875 -11.75 7.644531 -11.4375 8.125 -10.8125 C 8.613281 -10.195312 8.859375 -9.492188 8.859375 -8.703125 C 8.859375 -7.273438 8.367188 -6.410156 7.390625 -6.109375 C 7.796875 -6.003906 8.15625 -5.710938 8.46875 -5.234375 C 8.78125 -4.765625 8.9375 -4.113281 8.9375 -3.28125 C 8.9375 -2.84375 8.882812 -2.4375 8.78125 -2.0625 C 8.6875 -1.695312 8.523438 -1.351562 8.296875 -1.03125 C 8.078125 -0.707031 7.753906 -0.453125 7.328125 -0.265625 C 6.910156 -0.0859375 6.40625 0 5.8125 0 Z M 2.484375 -1.1875 L 5.8125 -1.1875 C 7.09375 -1.1875 7.734375 -1.894531 7.734375 -3.3125 C 7.734375 -3.945312 7.570312 -4.476562 7.25 -4.90625 C 6.9375 -5.34375 6.457031 -5.5625 5.8125 -5.5625 L 2.484375 -5.5625 Z M 2.484375 -6.75 L 5.8125 -6.75 C 7.050781 -6.75 7.671875 -7.398438 7.671875 -8.703125 C 7.671875 -9.941406 7.050781 -10.5625 5.8125 -10.5625 L 2.484375 -10.5625 Z M 2.484375 -6.75 "/></g></g></g><g fill="#ffffff" fill-opacity="1"><g transform="translate(205.75975, 280.026674)"><g/></g></g><g fill="#ffffff" fill-opacity="1"><g transform="translate(215.702845, 280.026674)"><g><path d="M 1.28125 0 L 1.28125 -11.75 L 5.65625 -11.75 C 6.351562 -11.75 6.957031 -11.617188 7.46875 -11.359375 C 7.988281 -11.097656 8.394531 -10.769531 8.6875 -10.375 C 8.976562 -9.976562 9.210938 -9.5 9.390625 -8.9375 C 9.578125 -8.382812 9.695312 -7.863281 9.75 -7.375 C 9.800781 -6.894531 9.828125 -6.378906 9.828125 -5.828125 C 9.828125 -5.273438 9.78125 -4.734375 9.6875 -4.203125 C 9.601562 -3.671875 9.457031 -3.144531 9.25 -2.625 C 9.039062 -2.113281 8.78125 -1.664062 8.46875 -1.28125 C 8.15625 -0.894531 7.753906 -0.582031 7.265625 -0.34375 C 6.785156 -0.113281 6.25 0 5.65625 0 Z M 2.46875 -1.234375 L 5.65625 -1.234375 C 6.332031 -1.234375 6.898438 -1.445312 7.359375 -1.875 C 7.816406 -2.3125 8.144531 -2.863281 8.34375 -3.53125 C 8.539062 -4.207031 8.640625 -4.976562 8.640625 -5.84375 C 8.640625 -7.507812 8.382812 -8.710938 7.875 -9.453125 C 7.363281 -10.191406 6.625 -10.5625 5.65625 -10.5625 L 2.46875 -10.5625 Z M 2.46875 -1.234375 "/></g></g></g><g fill="#ffffff" fill-opacity="1"><g transform="translate(230.977077, 280.026674)"><g><path d="M 1.28125 -1.96875 L 1.28125 -9.671875 C 1.28125 -10.390625 1.457031 -10.914062 1.8125 -11.25 C 2.164062 -11.582031 2.625 -11.75 3.1875 -11.75 C 3.207031 -11.75 3.226562 -11.75 3.25 -11.75 C 3.269531 -11.75 3.289062 -11.75 3.3125 -11.75 L 8.390625 -11.5 L 8.390625 -10.5625 L 3.3125 -10.5625 C 3.050781 -10.5625 2.851562 -10.507812 2.71875 -10.40625 C 2.582031 -10.3125 2.503906 -10.210938 2.484375 -10.109375 C 2.472656 -10.003906 2.46875 -9.859375 2.46875 -9.671875 L 2.46875 -6.453125 L 7.734375 -6.296875 L 7.734375 -5.34375 L 2.46875 -5.1875 L 2.46875 -1.96875 C 2.46875 -1.78125 2.492188 -1.625 2.546875 -1.5 C 2.609375 -1.375 2.691406 -1.285156 2.796875 -1.234375 C 2.898438 -1.191406 2.992188 -1.164062 3.078125 -1.15625 C 3.160156 -1.144531 3.273438 -1.140625 3.421875 -1.140625 C 3.421875 -1.140625 3.425781 -1.140625 3.4375 -1.140625 C 3.445312 -1.140625 3.457031 -1.140625 3.46875 -1.140625 L 8.390625 -1.140625 L 8.390625 -0.21875 L 3.46875 0.046875 C 3.425781 0.046875 3.382812 0.046875 3.34375 0.046875 C 3.300781 0.0546875 3.257812 0.0625 3.21875 0.0625 C 2.945312 0.0625 2.703125 0.0351562 2.484375 -0.015625 C 2.273438 -0.078125 2.078125 -0.179688 1.890625 -0.328125 C 1.703125 -0.472656 1.550781 -0.679688 1.4375 -0.953125 C 1.332031 -1.234375 1.28125 -1.570312 1.28125 -1.96875 Z M 1.28125 -1.96875 "/></g></g></g><g fill="#ffffff" fill-opacity="1"><g transform="translate(244.80612, 280.026674)"><g><path d="M 0.71875 -11.75 L 2.03125 -11.75 L 5.46875 -1.890625 L 9.0625 -11.75 L 10.359375 -11.75 L 6.046875 0 L 4.84375 0 Z M 0.71875 -11.75 "/></g></g></g><g fill="#ffffff" fill-opacity="1"><g transform="translate(260.289107, 280.026674)"><g><path d="M 1.28125 -1.96875 L 1.28125 -9.671875 C 1.28125 -10.390625 1.457031 -10.914062 1.8125 -11.25 C 2.164062 -11.582031 2.625 -11.75 3.1875 -11.75 C 3.207031 -11.75 3.226562 -11.75 3.25 -11.75 C 3.269531 -11.75 3.289062 -11.75 3.3125 -11.75 L 8.390625 -11.5 L 8.390625 -10.5625 L 3.3125 -10.5625 C 3.050781 -10.5625 2.851562 -10.507812 2.71875 -10.40625 C 2.582031 -10.3125 2.503906 -10.210938 2.484375 -10.109375 C 2.472656 -10.003906 2.46875 -9.859375 2.46875 -9.671875 L 2.46875 -6.453125 L 7.734375 -6.296875 L 7.734375 -5.34375 L 2.46875 -5.1875 L 2.46875 -1.96875 C 2.46875 -1.78125 2.492188 -1.625 2.546875 -1.5 C 2.609375 -1.375 2.691406 -1.285156 2.796875 -1.234375 C 2.898438 -1.191406 2.992188 -1.164062 3.078125 -1.15625 C 3.160156 -1.144531 3.273438 -1.140625 3.421875 -1.140625 C 3.421875 -1.140625 3.425781 -1.140625 3.4375 -1.140625 C 3.445312 -1.140625 3.457031 -1.140625 3.46875 -1.140625 L 8.390625 -1.140625 L 8.390625 -0.21875 L 3.46875 0.046875 C 3.425781 0.046875 3.382812 0.046875 3.34375 0.046875 C 3.300781 0.0546875 3.257812 0.0625 3.21875 0.0625 C 2.945312 0.0625 2.703125 0.0351562 2.484375 -0.015625 C 2.273438 -0.078125 2.078125 -0.179688 1.890625 -0.328125 C 1.703125 -0.472656 1.550781 -0.679688 1.4375 -0.953125 C 1.332031 -1.234375 1.28125 -1.570312 1.28125 -1.96875 Z M 1.28125 -1.96875 "/></g></g></g><g fill="#ffffff" fill-opacity="1"><g transform="translate(274.118151, 280.026674)"><g><path d="M 1.28125 -2.03125 L 1.28125 -11.75 L 2.46875 -11.75 L 2.46875 -2.03125 C 2.46875 -1.90625 2.476562 -1.800781 2.5 -1.71875 C 2.519531 -1.632812 2.546875 -1.5625 2.578125 -1.5 C 2.609375 -1.4375 2.648438 -1.382812 2.703125 -1.34375 C 2.753906 -1.300781 2.800781 -1.269531 2.84375 -1.25 C 2.894531 -1.226562 2.957031 -1.210938 3.03125 -1.203125 C 3.101562 -1.191406 3.164062 -1.1875 3.21875 -1.1875 C 3.269531 -1.1875 3.335938 -1.1875 3.421875 -1.1875 C 3.421875 -1.1875 3.425781 -1.1875 3.4375 -1.1875 C 3.445312 -1.1875 3.457031 -1.1875 3.46875 -1.1875 L 8.390625 -1.1875 L 8.390625 0 L 3.46875 0 C 3.15625 0 2.882812 -0.0195312 2.65625 -0.0625 C 2.4375 -0.101562 2.210938 -0.1875 1.984375 -0.3125 C 1.765625 -0.445312 1.59375 -0.65625 1.46875 -0.9375 C 1.34375 -1.226562 1.28125 -1.59375 1.28125 -2.03125 Z M 1.28125 -2.03125 "/></g></g></g><g fill="#ffffff" fill-opacity="1"><g transform="translate(287.786621, 280.026674)"><g><path d="M 1.046875 -5.796875 C 1.046875 -6.691406 1.09375 -7.472656 1.1875 -8.140625 C 1.28125 -8.816406 1.425781 -9.375 1.625 -9.8125 C 1.832031 -10.25 2.054688 -10.601562 2.296875 -10.875 C 2.546875 -11.15625 2.859375 -11.363281 3.234375 -11.5 C 3.609375 -11.632812 3.96875 -11.722656 4.3125 -11.765625 C 4.664062 -11.816406 5.097656 -11.84375 5.609375 -11.84375 C 6.046875 -11.84375 6.421875 -11.820312 6.734375 -11.78125 C 7.054688 -11.75 7.382812 -11.6875 7.71875 -11.59375 C 8.050781 -11.5 8.332031 -11.363281 8.5625 -11.1875 C 8.789062 -11.019531 9.007812 -10.785156 9.21875 -10.484375 C 9.4375 -10.179688 9.601562 -9.816406 9.71875 -9.390625 C 9.84375 -8.972656 9.941406 -8.460938 10.015625 -7.859375 C 10.097656 -7.265625 10.140625 -6.578125 10.140625 -5.796875 C 10.140625 -4.773438 10.070312 -3.910156 9.9375 -3.203125 C 9.800781 -2.492188 9.617188 -1.921875 9.390625 -1.484375 C 9.160156 -1.054688 8.84375 -0.726562 8.4375 -0.5 C 8.039062 -0.269531 7.625 -0.117188 7.1875 -0.046875 C 6.757812 0.0234375 6.234375 0.0625 5.609375 0.0625 C 5.066406 0.0625 4.613281 0.0390625 4.25 0 C 3.882812 -0.0390625 3.515625 -0.128906 3.140625 -0.265625 C 2.773438 -0.398438 2.472656 -0.597656 2.234375 -0.859375 C 1.992188 -1.117188 1.773438 -1.460938 1.578125 -1.890625 C 1.390625 -2.316406 1.253906 -2.851562 1.171875 -3.5 C 1.085938 -4.15625 1.046875 -4.921875 1.046875 -5.796875 Z M 2.234375 -5.796875 C 2.234375 -4.753906 2.28125 -3.925781 2.375 -3.3125 C 2.476562 -2.707031 2.675781 -2.238281 2.96875 -1.90625 C 3.269531 -1.570312 3.613281 -1.359375 4 -1.265625 C 4.382812 -1.171875 4.921875 -1.125 5.609375 -1.125 C 6.140625 -1.125 6.578125 -1.15625 6.921875 -1.21875 C 7.265625 -1.289062 7.570312 -1.421875 7.84375 -1.609375 C 8.125 -1.796875 8.335938 -2.066406 8.484375 -2.421875 C 8.640625 -2.773438 8.753906 -3.222656 8.828125 -3.765625 C 8.910156 -4.304688 8.953125 -4.984375 8.953125 -5.796875 C 8.953125 -6.335938 8.929688 -6.816406 8.890625 -7.234375 C 8.859375 -7.660156 8.820312 -8.03125 8.78125 -8.34375 C 8.738281 -8.664062 8.664062 -8.945312 8.5625 -9.1875 C 8.457031 -9.4375 8.359375 -9.640625 8.265625 -9.796875 C 8.179688 -9.953125 8.050781 -10.085938 7.875 -10.203125 C 7.707031 -10.316406 7.5625 -10.398438 7.4375 -10.453125 C 7.320312 -10.515625 7.140625 -10.5625 6.890625 -10.59375 C 6.648438 -10.625 6.453125 -10.640625 6.296875 -10.640625 C 6.140625 -10.648438 5.910156 -10.65625 5.609375 -10.65625 C 5.304688 -10.65625 5.078125 -10.648438 4.921875 -10.640625 C 4.765625 -10.640625 4.566406 -10.625 4.328125 -10.59375 C 4.085938 -10.5625 3.898438 -10.515625 3.765625 -10.453125 C 3.640625 -10.398438 3.488281 -10.316406 3.3125 -10.203125 C 3.144531 -10.085938 3.015625 -9.953125 2.921875 -9.796875 C 2.835938 -9.640625 2.738281 -9.4375 2.625 -9.1875 C 2.519531 -8.945312 2.441406 -8.664062 2.390625 -8.34375 C 2.347656 -8.03125 2.3125 -7.65625 2.28125 -7.21875 C 2.25 -6.789062 2.234375 -6.316406 2.234375 -5.796875 Z M 2.234375 -5.796875 "/></g></g></g><g fill="#ffffff" fill-opacity="1"><g transform="translate(303.365948, 280.026674)"><g><path d="M 0.96875 0 L 0.96875 -11.75 L 5.796875 -11.75 C 7.671875 -11.75 8.609375 -10.617188 8.609375 -8.359375 C 8.609375 -7.710938 8.546875 -7.15625 8.421875 -6.6875 C 8.296875 -6.226562 8.144531 -5.878906 7.96875 -5.640625 C 7.789062 -5.398438 7.5625 -5.210938 7.28125 -5.078125 C 7.007812 -4.953125 6.765625 -4.867188 6.546875 -4.828125 C 6.335938 -4.796875 6.085938 -4.78125 5.796875 -4.78125 C 5.484375 -4.78125 4.804688 -4.828125 3.765625 -4.921875 C 2.734375 -5.023438 2.195312 -5.085938 2.15625 -5.109375 L 2.15625 0 Z M 2.15625 -5.96875 L 5.796875 -5.96875 C 6.304688 -5.96875 6.703125 -6.125 6.984375 -6.4375 C 7.265625 -6.75 7.40625 -7.390625 7.40625 -8.359375 C 7.394531 -8.847656 7.332031 -9.253906 7.21875 -9.578125 C 7.113281 -9.898438 6.96875 -10.125 6.78125 -10.25 C 6.59375 -10.375 6.429688 -10.453125 6.296875 -10.484375 C 6.160156 -10.523438 5.992188 -10.546875 5.796875 -10.546875 L 2.15625 -10.546875 Z M 2.15625 -5.96875 "/></g></g></g><g fill="#ffffff" fill-opacity="1"><g transform="translate(317.419799, 280.026674)"><g><path d="M 1.28125 -1.96875 L 1.28125 -9.671875 C 1.28125 -10.390625 1.457031 -10.914062 1.8125 -11.25 C 2.164062 -11.582031 2.625 -11.75 3.1875 -11.75 C 3.207031 -11.75 3.226562 -11.75 3.25 -11.75 C 3.269531 -11.75 3.289062 -11.75 3.3125 -11.75 L 8.390625 -11.5 L 8.390625 -10.5625 L 3.3125 -10.5625 C 3.050781 -10.5625 2.851562 -10.507812 2.71875 -10.40625 C 2.582031 -10.3125 2.503906 -10.210938 2.484375 -10.109375 C 2.472656 -10.003906 2.46875 -9.859375 2.46875 -9.671875 L 2.46875 -6.453125 L 7.734375 -6.296875 L 7.734375 -5.34375 L 2.46875 -5.1875 L 2.46875 -1.96875 C 2.46875 -1.78125 2.492188 -1.625 2.546875 -1.5 C 2.609375 -1.375 2.691406 -1.285156 2.796875 -1.234375 C 2.898438 -1.191406 2.992188 -1.164062 3.078125 -1.15625 C 3.160156 -1.144531 3.273438 -1.140625 3.421875 -1.140625 C 3.421875 -1.140625 3.425781 -1.140625 3.4375 -1.140625 C 3.445312 -1.140625 3.457031 -1.140625 3.46875 -1.140625 L 8.390625 -1.140625 L 8.390625 -0.21875 L 3.46875 0.046875 C 3.425781 0.046875 3.382812 0.046875 3.34375 0.046875 C 3.300781 0.0546875 3.257812 0.0625 3.21875 0.0625 C 2.945312 0.0625 2.703125 0.0351562 2.484375 -0.015625 C 2.273438 -0.078125 2.078125 -0.179688 1.890625 -0.328125 C 1.703125 -0.472656 1.550781 -0.679688 1.4375 -0.953125 C 1.332031 -1.234375 1.28125 -1.570312 1.28125 -1.96875 Z M 1.28125 -1.96875 "/></g></g></g><g fill="#ffffff" fill-opacity="1"><g transform="translate(331.248843, 280.026674)"><g><path d="M 0.96875 0 L 0.96875 -11.75 L 5.96875 -11.75 C 7.78125 -11.75 8.6875 -10.570312 8.6875 -8.21875 C 8.6875 -6.164062 8.007812 -5.039062 6.65625 -4.84375 L 9.125 0 L 7.84375 0 L 5.359375 -4.796875 L 2.15625 -5.03125 L 2.15625 0 Z M 2.15625 -6.09375 L 5.96875 -6.09375 C 6.164062 -6.09375 6.316406 -6.097656 6.421875 -6.109375 C 6.523438 -6.117188 6.65625 -6.15625 6.8125 -6.21875 C 6.96875 -6.289062 7.085938 -6.398438 7.171875 -6.546875 C 7.253906 -6.691406 7.328125 -6.90625 7.390625 -7.1875 C 7.453125 -7.46875 7.484375 -7.8125 7.484375 -8.21875 C 7.484375 -9.164062 7.34375 -9.789062 7.0625 -10.09375 C 6.789062 -10.394531 6.425781 -10.546875 5.96875 -10.546875 L 2.15625 -10.546875 Z M 2.15625 -6.09375 "/></g></g></g><g fill="#ffffff" fill-opacity="1"><g transform="translate(86.102185, 253.435973)"><g><path d="M 2.90625 0 L 2.90625 -19.21875 L 9.890625 -19.21875 C 11.171875 -19.21875 12.25 -19.003906 13.125 -18.578125 C 14.007812 -18.148438 14.671875 -17.546875 15.109375 -16.765625 C 15.546875 -15.992188 15.765625 -15.082031 15.765625 -14.03125 C 15.765625 -12.832031 15.460938 -11.84375 14.859375 -11.0625 C 14.265625 -10.289062 13.335938 -9.710938 12.078125 -9.328125 L 12.078125 -9.0625 C 12.703125 -8.8125 13.210938 -8.421875 13.609375 -7.890625 C 14.003906 -7.367188 14.367188 -6.585938 14.703125 -5.546875 L 16.46875 0 L 14.140625 0 L 12.21875 -5.875 C 12 -6.570312 11.738281 -7.113281 11.4375 -7.5 C 11.132812 -7.894531 10.753906 -8.179688 10.296875 -8.359375 C 9.847656 -8.535156 9.273438 -8.625 8.578125 -8.625 L 5.171875 -8.625 L 5.171875 0 Z M 9.828125 -10.546875 C 11.035156 -10.546875 11.929688 -10.820312 12.515625 -11.375 C 13.097656 -11.9375 13.390625 -12.785156 13.390625 -13.921875 C 13.390625 -15.054688 13.097656 -15.898438 12.515625 -16.453125 C 11.929688 -17.015625 11.035156 -17.296875 9.828125 -17.296875 L 5.171875 -17.296875 L 5.171875 -10.546875 Z M 9.828125 -10.546875 "/></g></g></g><g fill="#ffffff" fill-opacity="1"><g transform="translate(103.895858, 253.435973)"><g><path d="M 13.8125 -6.75 L 3.859375 -6.75 C 3.910156 -4.988281 4.328125 -3.695312 5.109375 -2.875 C 5.898438 -2.050781 6.976562 -1.640625 8.34375 -1.640625 C 9.382812 -1.640625 10.21875 -1.820312 10.84375 -2.1875 C 11.476562 -2.5625 11.972656 -3.144531 12.328125 -3.9375 L 12.609375 -3.9375 L 14 -3.109375 C 13.582031 -2.054688 12.910156 -1.226562 11.984375 -0.625 C 11.054688 -0.0195312 9.84375 0.28125 8.34375 0.28125 C 6.945312 0.28125 5.742188 0.00390625 4.734375 -0.546875 C 3.722656 -1.097656 2.945312 -1.9375 2.40625 -3.0625 C 1.863281 -4.1875 1.59375 -5.582031 1.59375 -7.25 C 1.59375 -8.894531 1.878906 -10.28125 2.453125 -11.40625 C 3.023438 -12.539062 3.804688 -13.382812 4.796875 -13.9375 C 5.796875 -14.5 6.9375 -14.78125 8.21875 -14.78125 C 10.070312 -14.78125 11.519531 -14.253906 12.5625 -13.203125 C 13.601562 -12.160156 14.128906 -10.609375 14.140625 -8.546875 C 14.140625 -7.734375 14.125 -7.191406 14.09375 -6.921875 Z M 12.03125 -8.546875 C 11.988281 -10.085938 11.644531 -11.207031 11 -11.90625 C 10.351562 -12.613281 9.425781 -12.96875 8.21875 -12.96875 C 6.945312 -12.96875 5.945312 -12.613281 5.21875 -11.90625 C 4.5 -11.195312 4.0625 -10.078125 3.90625 -8.546875 Z M 12.03125 -8.546875 "/></g></g></g><g fill="#ffffff" fill-opacity="1"><g transform="translate(119.350335, 253.435973)"><g><path d="M 5.984375 0.28125 C 4.554688 0.28125 3.441406 -0.0859375 2.640625 -0.828125 C 1.835938 -1.578125 1.4375 -2.644531 1.4375 -4.03125 C 1.4375 -4.894531 1.613281 -5.617188 1.96875 -6.203125 C 2.320312 -6.796875 2.867188 -7.28125 3.609375 -7.65625 C 4.359375 -8.03125 5.332031 -8.316406 6.53125 -8.515625 C 7.582031 -8.691406 8.378906 -8.890625 8.921875 -9.109375 C 9.472656 -9.328125 9.84375 -9.570312 10.03125 -9.84375 C 10.21875 -10.113281 10.3125 -10.457031 10.3125 -10.875 C 10.3125 -11.53125 10.085938 -12.03125 9.640625 -12.375 C 9.191406 -12.726562 8.46875 -12.90625 7.46875 -12.90625 C 6.53125 -12.90625 5.722656 -12.722656 5.046875 -12.359375 C 4.378906 -11.992188 3.765625 -11.453125 3.203125 -10.734375 L 2.9375 -10.734375 L 1.890625 -12.21875 C 2.503906 -13 3.285156 -13.617188 4.234375 -14.078125 C 5.179688 -14.546875 6.257812 -14.78125 7.46875 -14.78125 C 9.175781 -14.78125 10.4375 -14.40625 11.25 -13.65625 C 12.0625 -12.90625 12.46875 -11.867188 12.46875 -10.546875 L 12.46875 -2.859375 C 12.46875 -2.046875 12.804688 -1.640625 13.484375 -1.640625 C 13.710938 -1.640625 13.929688 -1.679688 14.140625 -1.765625 L 14.328125 -1.703125 L 14.578125 -0.21875 C 14.421875 -0.113281 14.210938 -0.0351562 13.953125 0.015625 C 13.691406 0.078125 13.425781 0.109375 13.15625 0.109375 C 12.363281 0.109375 11.757812 -0.0664062 11.34375 -0.421875 C 10.9375 -0.773438 10.675781 -1.289062 10.5625 -1.96875 L 10.296875 -2 C 9.878906 -1.238281 9.320312 -0.664062 8.625 -0.28125 C 7.925781 0.09375 7.046875 0.28125 5.984375 0.28125 Z M 6.453125 -1.4375 C 7.253906 -1.4375 7.953125 -1.617188 8.546875 -1.984375 C 9.140625 -2.359375 9.59375 -2.882812 9.90625 -3.5625 C 10.226562 -4.238281 10.390625 -5.019531 10.390625 -5.90625 L 10.390625 -7.75 L 10.140625 -7.796875 C 9.816406 -7.566406 9.421875 -7.375 8.953125 -7.21875 C 8.484375 -7.070312 7.832031 -6.9375 7 -6.8125 C 6.164062 -6.695312 5.5 -6.519531 5 -6.28125 C 4.507812 -6.039062 4.15625 -5.738281 3.9375 -5.375 C 3.726562 -5.019531 3.625 -4.570312 3.625 -4.03125 C 3.625 -3.1875 3.875 -2.539062 4.375 -2.09375 C 4.875 -1.65625 5.566406 -1.4375 6.453125 -1.4375 Z M 6.453125 -1.4375 "/></g></g></g><g fill="#ffffff" fill-opacity="1"><g transform="translate(134.344856, 253.435973)"><g><path d="M 8.328125 0.28125 C 7.046875 0.28125 5.894531 -0.0078125 4.875 -0.59375 C 3.863281 -1.175781 3.0625 -2.035156 2.46875 -3.171875 C 1.882812 -4.304688 1.59375 -5.664062 1.59375 -7.25 C 1.59375 -8.832031 1.882812 -10.191406 2.46875 -11.328125 C 3.0625 -12.460938 3.863281 -13.320312 4.875 -13.90625 C 5.894531 -14.488281 7.046875 -14.78125 8.328125 -14.78125 C 9.859375 -14.78125 11.078125 -14.488281 11.984375 -13.90625 C 12.890625 -13.332031 13.546875 -12.5625 13.953125 -11.59375 L 12.484375 -10.546875 L 12.21875 -10.546875 C 11.832031 -11.335938 11.328125 -11.921875 10.703125 -12.296875 C 10.085938 -12.671875 9.296875 -12.859375 8.328125 -12.859375 C 7.429688 -12.859375 6.644531 -12.644531 5.96875 -12.21875 C 5.289062 -11.800781 4.765625 -11.171875 4.390625 -10.328125 C 4.023438 -9.492188 3.84375 -8.46875 3.84375 -7.25 C 3.84375 -6.03125 4.03125 -5.003906 4.40625 -4.171875 C 4.78125 -3.335938 5.300781 -2.707031 5.96875 -2.28125 C 6.644531 -1.851562 7.429688 -1.640625 8.328125 -1.640625 C 9.328125 -1.640625 10.15625 -1.867188 10.8125 -2.328125 C 11.476562 -2.785156 12.003906 -3.503906 12.390625 -4.484375 L 12.65625 -4.484375 L 14.0625 -3.65625 C 13.6875 -2.4375 13.015625 -1.472656 12.046875 -0.765625 C 11.078125 -0.0664062 9.835938 0.28125 8.328125 0.28125 Z M 8.328125 0.28125 "/></g></g></g><g fill="#ffffff" fill-opacity="1"><g transform="translate(149.286812, 253.435973)"><g><path d="M 9.8125 -2.296875 L 10.484375 -0.765625 C 10.148438 -0.421875 9.703125 -0.160156 9.140625 0.015625 C 8.585938 0.191406 7.984375 0.28125 7.328125 0.28125 C 4.566406 0.28125 3.1875 -1.125 3.1875 -3.9375 L 3.1875 -12.75 L 0.65625 -12.75 L 0.65625 -14.515625 L 3.1875 -14.515625 L 3.1875 -17.578125 L 5.328125 -17.9375 L 5.328125 -14.515625 L 9.984375 -14.515625 L 9.984375 -12.75 L 5.328125 -12.75 L 5.328125 -4.140625 C 5.328125 -2.472656 6.050781 -1.640625 7.5 -1.640625 C 8.28125 -1.640625 8.957031 -1.859375 9.53125 -2.296875 Z M 9.8125 -2.296875 "/></g></g></g><g fill="#ffffff" fill-opacity="1"><g transform="translate(160.325723, 253.435973)"><g/></g></g><g fill="#ffffff" fill-opacity="1"><g transform="translate(166.922787, 253.435973)"><g><path d="M 4.9375 2.75 L 2.90625 2.75 L 2.90625 -20.328125 L 4.9375 -20.328125 Z M 4.9375 2.75 "/></g></g></g><g fill="#ffffff" fill-opacity="1"><g transform="translate(174.781441, 253.435973)"><g><path d="M 4.9375 2.75 L 2.90625 2.75 L 2.90625 -20.328125 L 4.9375 -20.328125 Z M 4.9375 2.75 "/></g></g></g><g fill="#ffffff" fill-opacity="1"><g transform="translate(182.640095, 253.435973)"><g/></g></g><g fill="#ffffff" fill-opacity="1"><g transform="translate(189.237158, 253.435973)"><g><path d="M 5.171875 -9.0625 L 5.171875 -1.859375 L 14.953125 -1.859375 L 14.953125 0 L 2.90625 0 L 2.90625 -19.21875 L 14.75 -19.21875 L 14.75 -17.359375 L 5.171875 -17.359375 L 5.171875 -10.921875 L 13.625 -10.921875 L 13.625 -9.0625 Z M 5.171875 -9.0625 "/></g></g></g><g fill="#ffffff" fill-opacity="1"><g transform="translate(205.466987, 253.435973)"><g><path d="M 3.03125 0 L 0.65625 0 L 5.140625 -7.515625 L 0.875 -14.5 L 3.296875 -14.5 L 6.65625 -8.921875 L 6.953125 -8.921875 L 10.3125 -14.5 L 12.625 -14.5 L 8.484375 -7.515625 L 12.859375 0 L 10.4375 0 L 6.859375 -6.125 L 6.5625 -6.125 Z M 3.03125 0 "/></g></g></g><g fill="#ffffff" fill-opacity="1"><g transform="translate(218.976512, 253.435973)"><g><path d="M 2.53125 5.875 L 2.53125 -14.5 L 4.671875 -14.5 L 4.671875 -12.328125 L 4.9375 -12.28125 C 6.019531 -13.945312 7.601562 -14.78125 9.6875 -14.78125 C 10.894531 -14.78125 11.945312 -14.503906 12.84375 -13.953125 C 13.75 -13.398438 14.453125 -12.554688 14.953125 -11.421875 C 15.453125 -10.296875 15.703125 -8.90625 15.703125 -7.25 C 15.703125 -5.59375 15.4375 -4.203125 14.90625 -3.078125 C 14.382812 -1.953125 13.660156 -1.109375 12.734375 -0.546875 C 11.804688 0.00390625 10.738281 0.28125 9.53125 0.28125 C 8.550781 0.28125 7.675781 0.109375 6.90625 -0.234375 C 6.144531 -0.578125 5.488281 -1.140625 4.9375 -1.921875 L 4.671875 -1.859375 L 4.671875 5.875 Z M 9.0625 -1.640625 C 12 -1.640625 13.46875 -3.507812 13.46875 -7.25 C 13.46875 -10.988281 12 -12.859375 9.0625 -12.859375 C 8.195312 -12.859375 7.4375 -12.660156 6.78125 -12.265625 C 6.125 -11.867188 5.609375 -11.25 5.234375 -10.40625 C 4.859375 -9.570312 4.671875 -8.519531 4.671875 -7.25 C 4.671875 -5.976562 4.859375 -4.921875 5.234375 -4.078125 C 5.609375 -3.242188 6.125 -2.628906 6.78125 -2.234375 C 7.4375 -1.835938 8.195312 -1.640625 9.0625 -1.640625 Z M 9.0625 -1.640625 "/></g></g></g><g fill="#ffffff" fill-opacity="1"><g transform="translate(236.270806, 253.435973)"><g><path d="M 13.8125 -6.75 L 3.859375 -6.75 C 3.910156 -4.988281 4.328125 -3.695312 5.109375 -2.875 C 5.898438 -2.050781 6.976562 -1.640625 8.34375 -1.640625 C 9.382812 -1.640625 10.21875 -1.820312 10.84375 -2.1875 C 11.476562 -2.5625 11.972656 -3.144531 12.328125 -3.9375 L 12.609375 -3.9375 L 14 -3.109375 C 13.582031 -2.054688 12.910156 -1.226562 11.984375 -0.625 C 11.054688 -0.0195312 9.84375 0.28125 8.34375 0.28125 C 6.945312 0.28125 5.742188 0.00390625 4.734375 -0.546875 C 3.722656 -1.097656 2.945312 -1.9375 2.40625 -3.0625 C 1.863281 -4.1875 1.59375 -5.582031 1.59375 -7.25 C 1.59375 -8.894531 1.878906 -10.28125 2.453125 -11.40625 C 3.023438 -12.539062 3.804688 -13.382812 4.796875 -13.9375 C 5.796875 -14.5 6.9375 -14.78125 8.21875 -14.78125 C 10.070312 -14.78125 11.519531 -14.253906 12.5625 -13.203125 C 13.601562 -12.160156 14.128906 -10.609375 14.140625 -8.546875 C 14.140625 -7.734375 14.125 -7.191406 14.09375 -6.921875 Z M 12.03125 -8.546875 C 11.988281 -10.085938 11.644531 -11.207031 11 -11.90625 C 10.351562 -12.613281 9.425781 -12.96875 8.21875 -12.96875 C 6.945312 -12.96875 5.945312 -12.613281 5.21875 -11.90625 C 4.5 -11.195312 4.0625 -10.078125 3.90625 -8.546875 Z M 12.03125 -8.546875 "/></g></g></g><g fill="#ffffff" fill-opacity="1"><g transform="translate(251.725283, 253.435973)"><g><path d="M 2.53125 0 L 2.53125 -14.5 L 4.5625 -14.5 L 4.5625 -12.21875 L 4.84375 -12.15625 C 5.507812 -13.800781 6.78125 -14.625 8.65625 -14.625 C 9.644531 -14.625 10.382812 -14.445312 10.875 -14.09375 L 10.3125 -12.28125 L 10.0625 -12.21875 C 9.507812 -12.488281 8.910156 -12.625 8.265625 -12.625 C 7.109375 -12.625 6.21875 -12.191406 5.59375 -11.328125 C 4.976562 -10.460938 4.671875 -9.054688 4.671875 -7.109375 L 4.671875 0 Z M 2.53125 0 "/></g></g></g><g fill="#ffffff" fill-opacity="1"><g transform="translate(262.921893, 253.435973)"><g><path d="M 9.8125 -2.296875 L 10.484375 -0.765625 C 10.148438 -0.421875 9.703125 -0.160156 9.140625 0.015625 C 8.585938 0.191406 7.984375 0.28125 7.328125 0.28125 C 4.566406 0.28125 3.1875 -1.125 3.1875 -3.9375 L 3.1875 -12.75 L 0.65625 -12.75 L 0.65625 -14.515625 L 3.1875 -14.515625 L 3.1875 -17.578125 L 5.328125 -17.9375 L 5.328125 -14.515625 L 9.984375 -14.515625 L 9.984375 -12.75 L 5.328125 -12.75 L 5.328125 -4.140625 C 5.328125 -2.472656 6.050781 -1.640625 7.5 -1.640625 C 8.28125 -1.640625 8.957031 -1.859375 9.53125 -2.296875 Z M 9.8125 -2.296875 "/></g></g></g></svg>